<?xml version="1.0" encoding="UTF-8" standalone="no"?>
<!-- Created with Inkscape (http://www.inkscape.org/) -->

<svg
   xmlns:dc="http://purl.org/dc/elements/1.1/"
   xmlns:cc="http://creativecommons.org/ns#"
   xmlns:rdf="http://www.w3.org/1999/02/22-rdf-syntax-ns#"
   xmlns:svg="http://www.w3.org/2000/svg"
   xmlns="http://www.w3.org/2000/svg"
   xmlns:sodipodi="http://sodipodi.sourceforge.net/DTD/sodipodi-0.dtd"
   xmlns:inkscape="http://www.inkscape.org/namespaces/inkscape"
   width="36.474236mm"
   height="36.474236mm"
   viewBox="0 0 36.474236 36.474236"
   version="1.1"
   id="svg1944"
   inkscape:version="0.92.4 (5da689c313, 2019-01-14)"
   sodipodi:docname="iste_log.svg">
  <defs
     id="defs1938" />
  <sodipodi:namedview
     id="base"
     pagecolor="#ffffff"
     bordercolor="#666666"
     borderopacity="1.0"
     inkscape:pageopacity="0.0"
     inkscape:pageshadow="2"
     inkscape:zoom="1.979899"
     inkscape:cx="78.075807"
     inkscape:cy="57.604244"
     inkscape:document-units="mm"
     inkscape:current-layer="layer1"
     showgrid="false"
     inkscape:window-width="1920"
     inkscape:window-height="1044"
     inkscape:window-x="0"
     inkscape:window-y="0"
     inkscape:window-maximized="1" />
  <metadata
     id="metadata1941">
    <rdf:RDF>
      <cc:Work
         rdf:about="">
        <dc:format>image/svg+xml</dc:format>
        <dc:type
           rdf:resource="http://purl.org/dc/dcmitype/StillImage" />
        <dc:title />
      </cc:Work>
    </rdf:RDF>
  </metadata>
  <g
     inkscape:label="Layer 1"
     inkscape:groupmode="layer"
     id="layer1"
     transform="translate(-133.70931,-116.23312)">
    <circle
       inkscape:export-ydpi="300"
       inkscape:export-xdpi="300"
       inkscape:export-filename="/home/sanu/Pictures/Orion/Orion Art.png"
       transform="rotate(-34.664558)"
       cy="196.92485"
       cx="49.30994"
       id="use17636"
       style="display:inline;opacity:1;fill:#fff;fill-opacity:1;stroke:none;stroke-width:0.04687208;stroke-miterlimit:4;stroke-dasharray:none;stroke-opacity:0.9748428"
       r="0.10697418"
       inkscape:tile-x0="12.079064"
       inkscape:tile-y0="11.522966" />
    <g
       aria-label="INDIAN SOCIETY FOR TECHNICAL EDUCATION"
       transform="matrix(-0.92118691,0.42991202,-0.42991202,-0.92118691,382.03542,39.90697)"
       style="font-style:normal;font-variant:normal;font-weight:bold;font-stretch:normal;font-size:2.85763407px;line-height:1.25;font-family:Montserrat;-inkscape-font-specification:'Montserrat Bold';text-align:end;letter-spacing:0px;word-spacing:0px;text-anchor:end;fill:#fff;fill-opacity:1;stroke:none;stroke-width:0.0771586;stroke-opacity:1"
       id="text1473">
      <path
         inkscape:connector-curvature="0"
         d="m 255.52065,1.8839499 0.29682,0.3552523 -1.53504,1.2825854 -0.29682,-0.3552523 z"
         style="font-style:normal;font-variant:normal;font-weight:bold;font-stretch:normal;font-size:2.85763407px;font-family:Montserrat;-inkscape-font-specification:'Montserrat Bold';fill:#fff;fill-opacity:1;stroke:none;stroke-width:0.0771586;stroke-opacity:1"
         id="path1871" />
      <path
         inkscape:connector-curvature="0"
         d="m 257.27234,4.3505461 -1.68637,1.0758988 -0.20442,-0.3204088 0.48745,-1.4939963 -1.02386,0.6532243 -0.24592,-0.3854542 1.68636,-1.0758988 0.20596,0.3228179 -0.48899,1.4915872 1.02387,-0.6532243 z"
         style="font-style:normal;font-variant:normal;font-weight:bold;font-stretch:normal;font-size:2.85763407px;font-family:Montserrat;-inkscape-font-specification:'Montserrat Bold';fill:#fff;fill-opacity:1;stroke:none;stroke-width:0.0771586;stroke-opacity:1"
         id="path1873" />
      <path
         inkscape:connector-curvature="0"
         d="m 257.66425,5.1059288 0.33919,0.8430519 q 0.12159,0.3022261 0.0977,0.5798043 -0.0201,0.2791626 -0.17837,0.4906797 -0.15718,0.2141683 -0.43554,0.3261648 -0.27837,0.1119964 -0.54007,0.066356 -0.26064,-0.042989 -0.47115,-0.2293546 -0.20679,-0.184781 -0.32839,-0.4870072 l -0.33919,-0.8430518 z m -1.17252,1.4266241 q 0.11199,0.2783662 0.33189,0.38087 0.22361,0.1040884 0.48872,-0.00257 0.26511,-0.1066633 0.35168,-0.3355478 0.0903,-0.2273 -0.0217,-0.5056661 l -0.15787,-0.3923638 -1.15058,0.4629188 z"
         style="font-style:normal;font-variant:normal;font-weight:bold;font-stretch:normal;font-size:2.85763407px;font-family:Montserrat;-inkscape-font-specification:'Montserrat Bold';fill:#fff;fill-opacity:1;stroke:none;stroke-width:0.0771586;stroke-opacity:1"
         id="path1875" />
      <path
         inkscape:connector-curvature="0"
         d="m 258.55411,7.5724572 0.11501,0.4484213 -1.93762,0.4969827 -0.11502,-0.4484214 z"
         style="font-style:normal;font-variant:normal;font-weight:bold;font-stretch:normal;font-size:2.85763407px;font-family:Montserrat;-inkscape-font-specification:'Montserrat Bold';fill:#fff;fill-opacity:1;stroke:none;stroke-width:0.0771586;stroke-opacity:1"
         id="path1877" />
      <path
         inkscape:connector-curvature="0"
         d="m 257.45084,10.230439 -0.11768,-0.9212454 -0.44764,-0.1214329 -0.0601,-0.4705439 2.09719,0.6309377 0.0579,0.4535363 -1.87089,1.1406882 -0.0616,-0.481882 z m 0.33019,-0.189101 0.71948,-0.4116788 -0.79986,-0.2176025 z"
         style="font-style:normal;font-variant:normal;font-weight:bold;font-stretch:normal;font-size:2.85763407px;font-family:Montserrat;-inkscape-font-specification:'Montserrat Bold';fill:#fff;fill-opacity:1;stroke:none;stroke-width:0.0771586;stroke-opacity:1"
         id="path1879" />
      <path
         inkscape:connector-curvature="0"
         d="m 259.00708,13.086347 -1.99793,-0.09833 0.0187,-0.379606 1.26206,-0.936409 -1.21303,-0.0597 0.0225,-0.456669 1.99793,0.09833 -0.0188,0.38246 -1.26191,0.933554 1.21302,0.0597 z"
         style="font-style:normal;font-variant:normal;font-weight:bold;font-stretch:normal;font-size:2.85763407px;font-family:Montserrat;-inkscape-font-specification:'Montserrat Bold';fill:#fff;fill-opacity:1;stroke:none;stroke-width:0.0771586;stroke-opacity:1"
         id="path1881" />
      <path
         inkscape:connector-curvature="0"
         d="m 256.56157,14.879002 q 0.0648,-0.22815 0.18624,-0.425371 0.12337,-0.193692 0.25904,-0.294764 l 0.29239,0.246482 q -0.12586,0.09792 -0.22927,0.252722 -0.10341,0.154802 -0.15184,0.325228 -0.0539,0.189667 -0.0247,0.296 0.0319,0.107114 0.12541,0.133673 0.0687,0.01953 0.12832,-0.02295 0.0616,-0.03895 0.11328,-0.11635 0.0509,-0.07465 0.12452,-0.208216 0.11472,-0.205062 0.20679,-0.33041 0.0921,-0.125347 0.23641,-0.194245 0.14357,-0.06615 0.33599,-0.01147 0.16768,0.04765 0.27659,0.176635 0.11166,0.129767 0.13982,0.333841 0.0274,0.206823 -0.0476,0.470707 -0.0523,0.18417 -0.14631,0.347595 -0.094,0.163425 -0.21393,0.271933 l -0.29904,-0.23352 q 0.22695,-0.223671 0.30272,-0.490304 0.0531,-0.186918 0.0184,-0.294814 -0.0355,-0.105146 -0.13443,-0.133267 -0.099,-0.02812 -0.17734,0.05952 -0.0764,0.09117 -0.18329,0.289553 -0.11472,0.205062 -0.20678,0.33041 -0.0921,0.125347 -0.23289,0.192277 -0.1416,0.06968 -0.33402,0.015 -0.16493,-0.04687 -0.27581,-0.179384 -0.10891,-0.128986 -0.13629,-0.335808 -0.0274,-0.206823 0.0476,-0.470708 z"
         style="font-style:normal;font-variant:normal;font-weight:bold;font-stretch:normal;font-size:2.85763407px;font-family:Montserrat;-inkscape-font-specification:'Montserrat Bold';fill:#fff;fill-opacity:1;stroke:none;stroke-width:0.0771586;stroke-opacity:1"
         id="path1883" />
      <path
         inkscape:connector-curvature="0"
         d="m 255.81066,16.870436 q 0.13423,-0.281074 0.3638,-0.450114 0.22834,-0.166462 0.50136,-0.194411 0.27438,-0.02414 0.53998,0.102707 0.2656,0.126846 0.41671,0.354183 0.15245,0.231149 0.1665,0.513372 0.0128,0.284803 -0.12141,0.565876 -0.13423,0.281073 -0.36257,0.447535 -0.22834,0.166462 -0.50394,0.193179 -0.27303,0.02795 -0.53863,-0.0989 -0.2656,-0.126846 -0.41805,-0.357994 -0.14988,-0.229916 -0.16393,-0.51214 -0.0141,-0.282224 0.12018,-0.563297 z m 0.35585,0.169948 q -0.0763,0.159877 -0.0657,0.323292 0.0132,0.164646 0.11024,0.299655 0.0958,0.137588 0.26341,0.217636 0.16761,0.08005 0.33484,0.06808 0.16599,-0.0094 0.29977,-0.103846 0.13635,-0.09322 0.21271,-0.253095 0.0763,-0.159877 0.0632,-0.324523 -0.0106,-0.163415 -0.10643,-0.301003 -0.097,-0.13501 -0.26464,-0.215058 -0.16761,-0.08005 -0.33361,-0.07065 -0.16722,0.01197 -0.30358,0.105193 -0.13377,0.09445 -0.21013,0.254327 z"
         style="font-style:normal;font-variant:normal;font-weight:bold;font-stretch:normal;font-size:2.85763407px;font-family:Montserrat;-inkscape-font-specification:'Montserrat Bold';fill:#fff;fill-opacity:1;stroke:none;stroke-width:0.0771586;stroke-opacity:1"
         id="path1885" />
      <path
         inkscape:connector-curvature="0"
         d="m 254.58101,18.919961 q 0.17862,-0.248167 0.43055,-0.373155 0.25257,-0.121 0.52622,-0.100076 0.27431,0.02491 0.51552,0.198528 0.2412,0.173617 0.34959,0.424153 0.10903,0.254524 0.0721,0.530777 -0.0362,0.280242 -0.21652,0.530728 -0.15191,0.211058 -0.348,0.326947 -0.19775,0.118209 -0.42038,0.134012 l -0.049,-0.40147 q 0.30872,-0.02778 0.484,-0.27131 0.10851,-0.150755 0.12639,-0.317453 0.0202,-0.165028 -0.0497,-0.317426 -0.0715,-0.15008 -0.22229,-0.25859 -0.15076,-0.10851 -0.31579,-0.128708 -0.16669,-0.01788 -0.31909,0.05199 -0.15008,0.07154 -0.25859,0.222298 -0.17529,0.243528 -0.10131,0.546759 l -0.39627,0.08095 q -0.058,-0.217799 -0.009,-0.442848 0.0493,-0.22505 0.20123,-0.436108 z"
         style="font-style:normal;font-variant:normal;font-weight:bold;font-stretch:normal;font-size:2.85763407px;font-family:Montserrat;-inkscape-font-specification:'Montserrat Bold';fill:#fff;fill-opacity:1;stroke:none;stroke-width:0.0771586;stroke-opacity:1"
         id="path1887" />
      <path
         inkscape:connector-curvature="0"
         d="m 255.36835,21.177058 -0.31326,0.340852 -1.47281,-1.353585 0.31325,-0.340851 z"
         style="font-style:normal;font-variant:normal;font-weight:bold;font-stretch:normal;font-size:2.85763407px;font-family:Montserrat;-inkscape-font-specification:'Montserrat Bold';fill:#fff;fill-opacity:1;stroke:none;stroke-width:0.0771586;stroke-opacity:1"
         id="path1889" />
      <path
         inkscape:connector-curvature="0"
         d="m 252.33486,21.811721 -0.24361,-0.280471 1.16935,-1.015641 1.31171,1.510225 -1.1413,0.991281 -0.2436,-0.28047 0.79395,-0.689587 -0.28483,-0.327935 -0.70118,0.609011 -0.23611,-0.271841 0.70118,-0.60901 -0.30357,-0.34951 z"
         style="font-style:normal;font-variant:normal;font-weight:bold;font-stretch:normal;font-size:2.85763407px;font-family:Montserrat;-inkscape-font-specification:'Montserrat Bold';fill:#fff;fill-opacity:1;stroke:none;stroke-width:0.0771586;stroke-opacity:1"
         id="path1891" />
      <path
         inkscape:connector-curvature="0"
         d="m 252.31337,23.333122 0.5384,-0.346223 0.20402,0.317269 -1.46616,0.94284 -0.20403,-0.317269 0.5384,-0.346223 -0.87793,-1.365219 0.38938,-0.250393 z"
         style="font-style:normal;font-variant:normal;font-weight:bold;font-stretch:normal;font-size:2.85763407px;font-family:Montserrat;-inkscape-font-specification:'Montserrat Bold';fill:#fff;fill-opacity:1;stroke:none;stroke-width:0.0771586;stroke-opacity:1"
         id="path1893" />
      <path
         inkscape:connector-curvature="0"
         d="m 249.73685,23.697167 -0.2932,-0.645197 0.42146,-0.191526 0.29557,0.6504 1.23705,0.850328 -0.44748,0.203349 -0.85418,-0.588015 -0.11882,1.030181 -0.41365,0.187979 z"
         style="font-style:normal;font-variant:normal;font-weight:bold;font-stretch:normal;font-size:2.85763407px;font-family:Montserrat;-inkscape-font-specification:'Montserrat Bold';fill:#fff;fill-opacity:1;stroke:none;stroke-width:0.0771586;stroke-opacity:1"
         id="path1895" />
      <path
         inkscape:connector-curvature="0"
         d="m 247.66072,25.345534 -0.11194,-0.516675 -0.90488,0.19605 -0.0787,-0.363069 0.90488,-0.19605 -0.1543,-0.712173 0.45244,-0.09802 0.42356,1.954986 -1.47741,0.320093 -0.0787,-0.363069 z"
         style="font-style:normal;font-variant:normal;font-weight:bold;font-stretch:normal;font-size:2.85763407px;font-family:Montserrat;-inkscape-font-specification:'Montserrat Bold';fill:#fff;fill-opacity:1;stroke:none;stroke-width:0.0771586;stroke-opacity:1"
         id="path1897" />
      <path
         inkscape:connector-curvature="0"
         d="m 245.03025,24.034462 q 0.31114,-0.01465 0.56865,0.107681 0.25466,0.122466 0.4084,0.349812 0.15103,0.230335 0.16487,0.524345 0.0139,0.294011 -0.115,0.534664 -0.13157,0.243641 -0.37359,0.389495 -0.24488,0.145989 -0.55601,0.16064 -0.31114,0.01465 -0.5658,-0.107816 -0.25465,-0.122466 -0.40853,-0.352666 -0.15375,-0.227346 -0.16759,-0.521357 -0.0138,-0.294011 0.11772,-0.537652 0.1317,-0.240787 0.37372,-0.386641 0.24202,-0.145854 0.55316,-0.160505 z m 0.0186,0.393917 q -0.17698,0.0083 -0.31594,0.09498 -0.13882,0.0895 -0.21189,0.238842 -0.0759,0.149476 -0.0672,0.335016 0.009,0.185541 0.0984,0.327221 0.0868,0.141815 0.23327,0.215019 0.14662,0.07606 0.3236,0.06773 0.17697,-0.0083 0.3158,-0.09783 0.13896,-0.08665 0.21488,-0.236122 0.0731,-0.149341 0.0643,-0.334882 -0.009,-0.185541 -0.0955,-0.327355 -0.0896,-0.14168 -0.23626,-0.217739 -0.14648,-0.07321 -0.32346,-0.06487 z"
         style="font-style:normal;font-variant:normal;font-weight:bold;font-stretch:normal;font-size:2.85763407px;font-family:Montserrat;-inkscape-font-specification:'Montserrat Bold';fill:#fff;fill-opacity:1;stroke:none;stroke-width:0.0771586;stroke-opacity:1"
         id="path1899" />
      <path
         inkscape:connector-curvature="0"
         d="m 242.32342,23.91648 0.3105,0.602434 0.0227,0.003 0.39955,0.05209 0.072,-0.552563 0.45906,0.05984 -0.25859,1.983559 -0.8586,-0.111933 q -0.26353,-0.03435 -0.44477,-0.147319 -0.18407,-0.113333 -0.26786,-0.288519 -0.0838,-0.175187 -0.055,-0.396212 0.0288,-0.221025 0.15755,-0.368506 0.12553,-0.145017 0.33213,-0.204537 l -0.36176,-0.69557 z m -0.15626,1.264919 q -0.0218,0.167185 0.0744,0.269066 0.0959,0.104715 0.30271,0.131682 l 0.37405,0.04876 0.0901,-0.691412 -0.37404,-0.04876 q -0.20686,-0.02697 -0.32636,0.04967 -0.1195,0.07664 -0.14092,0.240992 z"
         style="font-style:normal;font-variant:normal;font-weight:bold;font-stretch:normal;font-size:2.85763407px;font-family:Montserrat;-inkscape-font-specification:'Montserrat Bold';fill:#fff;fill-opacity:1;stroke:none;stroke-width:0.0771586;stroke-opacity:1"
         id="path1901" />
      <path
         inkscape:connector-curvature="0"
         d="m 239.78794,24.934866 0.60183,0.218038 -0.12848,0.35465 -1.63892,-0.593763 0.12849,-0.354651 0.60183,0.218038 0.55288,-1.526071 0.43525,0.157688 z"
         style="font-style:normal;font-variant:normal;font-weight:bold;font-stretch:normal;font-size:2.85763407px;font-family:Montserrat;-inkscape-font-specification:'Montserrat Bold';fill:#fff;fill-opacity:1;stroke:none;stroke-width:0.0771586;stroke-opacity:1"
         id="path1903" />
      <path
         inkscape:connector-curvature="0"
         d="m 237.54126,22.514004 0.17609,-0.327107 1.36378,0.734163 -0.94818,1.761343 -1.33107,-0.716554 0.17609,-0.327107 0.92596,0.498473 0.2059,-0.382463 -0.81777,-0.440227 0.17067,-0.317042 0.81777,0.440227 0.21943,-0.407625 z"
         style="font-style:normal;font-variant:normal;font-weight:bold;font-stretch:normal;font-size:2.85763407px;font-family:Montserrat;-inkscape-font-specification:'Montserrat Bold';fill:#fff;fill-opacity:1;stroke:none;stroke-width:0.0771586;stroke-opacity:1"
         id="path1905" />
      <path
         inkscape:connector-curvature="0"
         d="m 236.66856,21.377222 q 0.243,0.185588 0.3608,0.440955 0.11379,0.255903 0.0851,0.528853 -0.0327,0.273487 -0.21307,0.509677 -0.18038,0.23619 -0.43389,0.337428 -0.25751,0.101775 -0.53261,0.05708 -0.2791,-0.04416 -0.52437,-0.231481 -0.20667,-0.157836 -0.31696,-0.357126 -0.11255,-0.201024 -0.12204,-0.424011 l 0.4027,-0.03764 q 0.019,0.309374 0.25748,0.491492 0.14762,0.11274 0.31374,0.135337 0.16439,0.02487 0.31871,-0.04066 0.15205,-0.06726 0.26479,-0.214878 0.11274,-0.147619 0.13761,-0.312008 0.0226,-0.166123 -0.0429,-0.320442 -0.0673,-0.152047 -0.21488,-0.264787 -0.23846,-0.182119 -0.54366,-0.116768 l -0.0697,-0.398406 q 0.21936,-0.05181 0.44292,0.0039 0.22356,0.05568 0.43023,0.213513 z"
         style="font-style:normal;font-variant:normal;font-weight:bold;font-stretch:normal;font-size:2.85763407px;font-family:Montserrat;-inkscape-font-specification:'Montserrat Bold';fill:#fff;fill-opacity:1;stroke:none;stroke-width:0.0771586;stroke-opacity:1"
         id="path1907" />
      <path
         inkscape:connector-curvature="0"
         d="m 233.04822,20.696334 1.47005,-1.356591 0.31395,0.340211 -0.60272,0.556202 0.61628,0.667821 0.60272,-0.556202 0.31396,0.340211 -1.47005,1.356591 -0.31395,-0.340211 0.57962,-0.534885 -0.61628,-0.667821 -0.57962,0.534885 z"
         style="font-style:normal;font-variant:normal;font-weight:bold;font-stretch:normal;font-size:2.85763407px;font-family:Montserrat;-inkscape-font-specification:'Montserrat Bold';fill:#fff;fill-opacity:1;stroke:none;stroke-width:0.0771586;stroke-opacity:1"
         id="path1909" />
      <path
         inkscape:connector-curvature="0"
         d="m 231.5547,18.475193 1.69149,-1.06782 0.20288,0.321383 -0.49459,1.491648 1.02698,-0.648319 0.24407,0.386626 -1.69149,1.067819 -0.20441,-0.323799 0.49612,-1.489231 -1.02698,0.648319 z"
         style="font-style:normal;font-variant:normal;font-weight:bold;font-stretch:normal;font-size:2.85763407px;font-family:Montserrat;-inkscape-font-specification:'Montserrat Bold';fill:#fff;fill-opacity:1;stroke:none;stroke-width:0.0771586;stroke-opacity:1"
         id="path1911" />
      <path
         inkscape:connector-curvature="0"
         d="m 231.24185,17.80901 -0.19482,-0.419947 1.81458,-0.841818 0.19483,0.419947 z"
         style="font-style:normal;font-variant:normal;font-weight:bold;font-stretch:normal;font-size:2.85763407px;font-family:Montserrat;-inkscape-font-specification:'Montserrat Bold';fill:#fff;fill-opacity:1;stroke:none;stroke-width:0.0771586;stroke-opacity:1"
         id="path1913" />
      <path
         inkscape:connector-curvature="0"
         d="m 232.39229,15.196039 q 0.0948,0.290701 0.0469,0.567819 -0.0515,0.275287 -0.22998,0.483776 -0.18209,0.206658 -0.46464,0.298796 -0.28255,0.09214 -0.54874,0.03166 -0.2698,-0.06231 -0.47096,-0.255203 -0.20477,-0.194725 -0.30045,-0.488143 -0.0806,-0.247231 -0.0584,-0.47391 0.0214,-0.229396 0.14009,-0.418394 l 0.35296,0.1975 q -0.15988,0.265542 -0.0669,0.55081 0.0576,0.176594 0.18156,0.28946 0.12125,0.113752 0.28551,0.147357 0.16336,0.03089 0.33995,-0.0267 0.1766,-0.05759 0.29035,-0.178841 0.11287,-0.123971 0.14647,-0.288222 0.0309,-0.163364 -0.0267,-0.339959 -0.093,-0.285267 -0.38142,-0.404629 l 0.16868,-0.367601 q 0.21002,0.0818 0.36252,0.254495 0.1525,0.172695 0.23312,0.419927 z"
         style="font-style:normal;font-variant:normal;font-weight:bold;font-stretch:normal;font-size:2.85763407px;font-family:Montserrat;-inkscape-font-specification:'Montserrat Bold';fill:#fff;fill-opacity:1;stroke:none;stroke-width:0.0771586;stroke-opacity:1"
         id="path1915" />
      <path
         inkscape:connector-curvature="0"
         d="m 231.43585,12.910563 0.13561,0.918778 0.44992,0.112688 0.0693,0.469283 -2.10909,-0.589954 -0.0668,-0.452322 1.84831,-1.176926 0.0709,0.480592 z m -0.32644,0.195499 -0.71133,0.42562 0.80396,0.201976 z"
         style="font-style:normal;font-variant:normal;font-weight:bold;font-stretch:normal;font-size:2.85763407px;font-family:Montserrat;-inkscape-font-specification:'Montserrat Bold';fill:#fff;fill-opacity:1;stroke:none;stroke-width:0.0771586;stroke-opacity:1"
         id="path1917" />
      <path
         inkscape:connector-curvature="0"
         d="m 229.78692,11.96481 0.003,-0.462926 1.6231,0.01135 0.007,-1.003005 0.3772,0.0026 -0.0103,1.46593 z"
         style="font-style:normal;font-variant:normal;font-weight:bold;font-stretch:normal;font-size:2.85763407px;font-family:Montserrat;-inkscape-font-specification:'Montserrat Bold';fill:#fff;fill-opacity:1;stroke:none;stroke-width:0.0771586;stroke-opacity:1"
         id="path1919" />
      <path
         inkscape:connector-curvature="0"
         d="m 231.89319,7.8565563 0.36299,0.079025 -0.32947,1.5133883 -1.95456,-0.425522 0.32157,-1.4770892 0.36299,0.079025 -0.2237,1.0275403 0.42442,0.092399 0.19756,-0.9074745 0.35182,0.076594 -0.19756,0.9074745 0.45234,0.098478 z"
         style="font-style:normal;font-variant:normal;font-weight:bold;font-stretch:normal;font-size:2.85763407px;font-family:Montserrat;-inkscape-font-specification:'Montserrat Bold';fill:#fff;fill-opacity:1;stroke:none;stroke-width:0.0771586;stroke-opacity:1"
         id="path1921" />
      <path
         inkscape:connector-curvature="0"
         d="m 230.5033,6.8233474 0.34118,-0.8422472 q 0.12231,-0.3019377 0.33219,-0.4851562 0.2083,-0.1869399 0.46904,-0.2293124 0.26181,-0.045021 0.53991,0.067633 0.2781,0.1126546 0.43477,0.3271941 0.15774,0.2118908 0.17986,0.4921731 0.0205,0.2765609 -0.10177,0.5784986 l -0.34118,0.8422472 z m 1.83434,-0.2127237 q 0.11265,-0.2781005 0.0256,-0.5045405 -0.0887,-0.2301615 -0.35353,-0.3374516 -0.26486,-0.1072901 -0.48607,-0.00266 -0.22279,0.1009105 -0.33544,0.379011 l -0.15879,0.3919893 1.14948,0.4656391 z"
         style="font-style:normal;font-variant:normal;font-weight:bold;font-stretch:normal;font-size:2.85763407px;font-family:Montserrat;-inkscape-font-specification:'Montserrat Bold';fill:#fff;fill-opacity:1;stroke:none;stroke-width:0.0771586;stroke-opacity:1"
         id="path1923" />
      <path
         inkscape:connector-curvature="0"
         d="m 233.79689,4.6720578 q -0.23052,0.3613806 -0.55958,0.4361978 -0.32752,0.072408 -0.69853,-0.1642618 l -0.94441,-0.6024326 0.24896,-0.390291 0.92996,0.5932116 q 0.45293,0.2889217 0.69267,-0.086914 0.1168,-0.1830995 0.0699,-0.3486244 -0.0494,-0.1670618 -0.28305,-0.3161331 l -0.92995,-0.5932117 0.24589,-0.3854726 0.94441,0.6024326 q 0.37102,0.2366699 0.44189,0.5665989 0.0724,0.3275198 -0.15812,0.6889004 z"
         style="font-style:normal;font-variant:normal;font-weight:bold;font-stretch:normal;font-size:2.85763407px;font-family:Montserrat;-inkscape-font-specification:'Montserrat Bold';fill:#fff;fill-opacity:1;stroke:none;stroke-width:0.0771586;stroke-opacity:1"
         id="path1925" />
      <path
         inkscape:connector-curvature="0"
         d="m 235.21058,2.8464835 q -0.2056,0.226324 -0.47006,0.3219562 -0.26466,0.091595 -0.53418,0.039793 -0.26972,-0.055839 -0.48969,-0.2556737 -0.21998,-0.1998342 -0.29927,-0.4610395 -0.0795,-0.265242 -0.0115,-0.5355354 0.0677,-0.2743302 0.27528,-0.5027693 0.17485,-0.1924812 0.3828,-0.2854017 0.20988,-0.095036 0.43286,-0.085506 l 0.003,0.4044408 q -0.30987,-0.00738 -0.51163,0.2147096 -0.1249,0.1374865 -0.16155,0.3010836 -0.0388,0.1616756 0.0134,0.3210114 0.0541,0.1572206 0.19156,0.282117 0.13749,0.1248964 0.29916,0.163667 0.1636,0.036656 0.32293,-0.015496 0.15722,-0.054072 0.28212,-0.1915591 0.20176,-0.2220936 0.16262,-0.5317543 l 0.40289,-0.035516 q 0.033,0.2229693 -0.0416,0.4409799 -0.0745,0.2180106 -0.24936,0.4104917 z"
         style="font-style:normal;font-variant:normal;font-weight:bold;font-stretch:normal;font-size:2.85763407px;font-family:Montserrat;-inkscape-font-specification:'Montserrat Bold';fill:#fff;fill-opacity:1;stroke:none;stroke-width:0.0771586;stroke-opacity:1"
         id="path1927" />
      <path
         inkscape:connector-curvature="0"
         d="m 236.71725,0.88136923 -0.72772,0.57702717 0.12749,0.4459513 -0.3717,0.2947277 -0.54421,-2.12134991 0.35826,-0.28407491 1.94368,1.01168227 -0.38065,0.30182955 z m -0.33258,-0.18486637 -0.72437,-0.40301478 0.22728,0.79716872 z"
         style="font-style:normal;font-variant:normal;font-weight:bold;font-stretch:normal;font-size:2.85763407px;font-family:Montserrat;-inkscape-font-specification:'Montserrat Bold';fill:#fff;fill-opacity:1;stroke:none;stroke-width:0.0771586;stroke-opacity:1"
         id="path1929" />
      <path
         inkscape:connector-curvature="0"
         d="m 237.17279,-0.83863625 -0.55603,0.31712863 -0.18688,-0.32766103 1.51419,-0.86360925 0.18688,0.3276611 -0.55603,0.3171286 0.80415,1.40993532 -0.40213,0.22935195 z"
         style="font-style:normal;font-variant:normal;font-weight:bold;font-stretch:normal;font-size:2.85763407px;font-family:Montserrat;-inkscape-font-specification:'Montserrat Bold';fill:#fff;fill-opacity:1;stroke:none;stroke-width:0.0771586;stroke-opacity:1"
         id="path1931" />
      <path
         inkscape:connector-curvature="0"
         d="m 238.3721,-1.8890249 0.42437,-0.1849948 0.79936,1.83368455 -0.42437,0.18499477 z"
         style="font-style:normal;font-variant:normal;font-weight:bold;font-stretch:normal;font-size:2.85763407px;font-family:Montserrat;-inkscape-font-specification:'Montserrat Bold';fill:#fff;fill-opacity:1;stroke:none;stroke-width:0.0771586;stroke-opacity:1"
         id="path1933" />
      <path
         inkscape:connector-curvature="0"
         d="m 240.96854,-0.67997022 q -0.29955,0.0853817 -0.57821,0.0251493 -0.2759,-0.0610157 -0.47755,-0.24720041 -0.19967,-0.18971617 -0.28035,-0.47277857 -0.0807,-0.2830624 -0.0103,-0.5467956 0.0724,-0.2672647 0.27467,-0.4645778 0.20503,-0.1980964 0.50458,-0.2834781 0.29955,-0.085382 0.57546,-0.024366 0.2759,0.061016 0.47833,0.2499486 0.20164,0.1861847 0.28232,0.4692471 0.0807,0.2830623 0.008,0.5503271 -0.0732,0.2645165 -0.27545,0.46182958 -0.20228,0.19731308 -0.50183,0.28269478 z m -0.1081,-0.37924858 q 0.17039,-0.048566 0.28587,-0.1646807 0.11469,-0.1188631 0.15169,-0.2809531 0.0397,-0.1628733 -0.0112,-0.3415049 -0.0509,-0.1786316 -0.17056,-0.2960725 -0.1169,-0.1182242 -0.27624,-0.1560073 -0.16013,-0.040531 -0.33051,0.00803 -0.17039,0.048566 -0.28508,0.1674288 -0.11548,0.1161149 -0.15523,0.2789883 -0.037,0.16209 0.0139,0.3407216 0.0509,0.1786316 0.16781,0.2968558 0.11965,0.1174408 0.27977,0.1579721 0.15934,0.037783 0.32973,-0.010783 z"
         style="font-style:normal;font-variant:normal;font-weight:bold;font-stretch:normal;font-size:2.85763407px;font-family:Montserrat;-inkscape-font-specification:'Montserrat Bold';fill:#fff;fill-opacity:1;stroke:none;stroke-width:0.0771586;stroke-opacity:1"
         id="path1935" />
      <path
         inkscape:connector-curvature="0"
         d="m 244.00849,-3.2185071 0.18065,1.9921694 -0.37851,0.034325 -1.10292,-1.1194615 0.10968,1.2095314 -0.45535,0.041293 -0.18066,-1.9921694 0.38136,-0.034583 1.10008,1.1197196 -0.10969,-1.2095314 z"
         style="font-style:normal;font-variant:normal;font-weight:bold;font-stretch:normal;font-size:2.85763407px;font-family:Montserrat;-inkscape-font-specification:'Montserrat Bold';fill:#fff;fill-opacity:1;stroke:none;stroke-width:0.0771586;stroke-opacity:1"
         id="path1937" />
    </g>
    <path
       inkscape:connector-curvature="0"
       id="path2053"
       d="m 154.21114,122.80738 -0.002,5.3e-4 a 11.876172,11.863886 0 0 1 0.005,10e-4 5.7248517,5.7248517 0 0 0 -0.003,-0.002 z"
       style="fill:#fff;fill-opacity:1;stroke-width:0.58500421" />
    <circle
       r="17.187119"
       cy="134.47023"
       cx="151.94643"
       id="circle1825"
       style="opacity:1;fill:none;fill-opacity:0.38697318;stroke:#fff;stroke-width:2.0999999;stroke-linecap:round;stroke-miterlimit:4;stroke-dasharray:none;stroke-opacity:1" />
    <path
       style="fill:#fff;fill-opacity:1;stroke-width:1.83215559"
       d="M 68.929688 29 A 16.729414 16.729414 0 0 0 52.199219 45.730469 A 16.729414 16.729414 0 0 0 68.929688 62.458984 A 16.729414 16.729414 0 0 0 85.658203 45.730469 A 16.729414 16.729414 0 0 0 68.929688 29 z M 63.589844 41.667969 C 64.090808 41.667969 64.58003 41.727971 65.058594 41.847656 C 65.537132 41.967341 65.955524 42.139004 66.314453 42.363281 L 65.753906 43.744141 C 65.02859 43.332878 64.303416 43.126953 63.578125 43.126953 C 63.069653 43.126953 62.692065 43.208511 62.445312 43.373047 C 62.205943 43.537582 62.085937 43.754285 62.085938 44.023438 C 62.085938 44.292614 62.225292 44.494305 62.501953 44.628906 C 62.786098 44.75615 63.215268 44.884727 63.791016 45.011719 C 64.389214 45.153829 64.878411 45.295491 65.259766 45.4375 C 65.641095 45.57961 65.967125 45.80283 66.236328 46.109375 C 66.51299 46.415945 66.652344 46.832055 66.652344 47.355469 C 66.652344 47.804124 66.523767 48.215973 66.269531 48.589844 C 66.022854 48.956231 65.649501 49.248 65.148438 49.464844 C 64.647449 49.681789 64.038146 49.789062 63.320312 49.789062 C 62.69969 49.789062 62.098856 49.707504 61.515625 49.542969 C 60.939877 49.370874 60.476446 49.149937 60.125 48.880859 L 60.740234 47.511719 C 61.076713 47.758396 61.477809 47.957803 61.941406 48.107422 C 62.405003 48.257091 62.868434 48.332031 63.332031 48.332031 C 63.847962 48.332031 64.229786 48.257091 64.476562 48.107422 C 64.72324 47.950445 64.845703 47.744521 64.845703 47.490234 C 64.845703 47.303274 64.770763 47.148906 64.621094 47.029297 C 64.478984 46.902053 64.292308 46.801145 64.060547 46.726562 C 63.836295 46.651729 63.529513 46.57017 63.140625 46.480469 C 62.542452 46.338359 62.053229 46.196721 61.671875 46.054688 C 61.290521 45.912577 60.962208 45.683144 60.685547 45.369141 C 60.416369 45.055087 60.28125 44.636695 60.28125 44.113281 C 60.28125 43.657168 60.403713 43.247247 60.650391 42.880859 C 60.897068 42.506989 61.268138 42.210985 61.761719 41.994141 C 62.262708 41.777196 62.872011 41.667969 63.589844 41.667969 z M 57.060547 41.802734 L 58.876953 41.802734 L 58.876953 49.654297 L 57.060547 49.654297 L 57.060547 41.802734 z M 66.908203 41.802734 L 73.75 41.802734 L 73.75 43.283203 L 71.238281 43.283203 L 71.238281 49.654297 L 69.421875 49.654297 L 69.421875 43.283203 L 66.908203 43.283203 L 66.908203 41.802734 z M 74.716797 41.802734 L 80.650391 41.802734 L 80.650391 43.261719 L 76.523438 43.261719 L 76.523438 44.966797 L 80.167969 44.966797 L 80.167969 46.378906 L 76.523438 46.378906 L 76.523438 48.197266 L 80.796875 48.197266 L 80.796875 49.654297 L 74.716797 49.654297 L 74.716797 41.802734 z "
       transform="matrix(0.26458333,0,0,0.26458333,133.70931,116.23312)"
       id="path2055" />
    <path
       inkscape:connector-curvature="0"
       id="path2051"
       d="m 154.0888,123.45857 a 5.4084335,5.4084335 0 0 1 1.60521,1.10285 5.4758593,5.4758593 0 0 1 1.58519,3.82604 5.4769647,5.4769647 0 0 1 -1.58471,3.82604 5.2503699,5.2503699 0 0 1 -0.44231,0.39446 5.4161708,5.4161708 0 0 1 1.98601,-0.38372 5.476412,5.476412 0 0 1 3.82604,1.58519 5.4758593,5.4758593 0 0 1 1.58519,3.82604 c 0,0.0625 -0.002,0.12551 -0.005,0.18796 a 11.219764,11.208157 0 0 0 0.52141,-3.36713 11.219764,11.208157 0 0 0 -9.07716,-10.99773 z"
       style="fill:#fff;fill-opacity:1;stroke-width:0.55267048" />
    <path
       inkscape:connector-curvature="0"
       id="path2049"
       d="m 149.48602,123.53473 a 11.219764,11.208157 0 0 0 -8.75932,10.92157 11.219764,11.208157 0 0 0 0.53214,3.37104 5.0934113,5.0934113 0 0 1 -0.007,-0.25777 5.4758593,5.4758593 0 0 1 1.58519,-3.82604 5.476412,5.476412 0 0 1 3.82605,-1.58519 c 0.53111,0 1.06123,0.0819 1.56858,0.23775 a 5.1851547,5.1851547 0 0 1 -0.19088,-0.18161 5.4769647,5.4769647 0 0 1 -1.58421,-3.82702 5.4758593,5.4758593 0 0 1 1.58518,-3.82604 5.3896428,5.3896428 0 0 1 1.44313,-1.02571 z"
       style="fill:#fff;fill-opacity:1;stroke-width:0.55267048" />
    <path
       style="fill:#fff;fill-opacity:1;stroke-width:1.83215559"
       d="M 88.929688 64.158203 A 16.729414 16.729414 0 0 0 72.197266 80.888672 A 16.729414 16.729414 0 0 0 88.929688 97.617188 A 16.729414 16.729414 0 0 0 105.6582 80.888672 A 16.729414 16.729414 0 0 0 88.929688 64.158203 z M 88.220703 67.349609 L 89.632812 67.349609 L 90.128906 69.611328 A 11.345624 11.345624 0 0 1 91.650391 69.888672 L 92.896484 67.925781 L 94.21875 68.408203 L 93.912109 70.712891 A 11.345624 11.345624 0 0 1 95.253906 71.476562 L 97.089844 70.066406 L 98.169922 70.96875 L 97.095703 73.021484 A 11.345624 11.345624 0 0 1 98.083984 74.210938 L 100.29883 73.507812 L 101.00586 74.728516 L 99.287109 76.298828 A 11.345624 11.345624 0 0 1 99.822266 77.746094 L 102.13867 77.845703 L 102.38281 79.232422 L 100.24414 80.115234 A 11.345624 11.345624 0 0 1 100.27148 80.890625 A 11.345624 11.345624 0 0 1 100.22852 81.662109 L 102.37891 82.546875 L 102.13672 83.935547 L 99.816406 84.033203 A 11.345624 11.345624 0 0 1 99.289062 85.486328 L 101.00195 87.050781 L 100.29492 88.269531 L 98.082031 87.568359 A 11.345624 11.345624 0 0 1 97.087891 88.75 L 98.166016 90.808594 L 97.087891 91.714844 L 95.246094 90.298828 A 11.345624 11.345624 0 0 1 93.910156 91.074219 L 94.216797 93.373047 L 92.892578 93.853516 L 91.646484 91.892578 A 11.345624 11.345624 0 0 1 90.126953 92.160156 L 89.626953 94.429688 L 88.21875 94.429688 L 87.71875 92.169922 A 11.345624 11.345624 0 0 1 86.199219 91.890625 L 84.953125 93.853516 L 83.628906 93.373047 L 83.9375 91.066406 A 11.345624 11.345624 0 0 1 82.59375 90.302734 L 80.757812 91.714844 L 79.677734 90.810547 L 80.75 88.757812 A 11.345624 11.345624 0 0 1 79.765625 87.568359 L 77.546875 88.269531 L 76.84375 87.050781 L 78.5625 85.478516 A 11.345624 11.345624 0 0 1 78.023438 84.033203 L 75.708984 83.935547 L 75.464844 82.546875 L 77.601562 81.666016 A 11.345624 11.345624 0 0 1 77.576172 80.888672 A 11.345624 11.345624 0 0 1 77.617188 80.117188 L 75.46875 79.232422 L 75.712891 77.845703 L 78.033203 77.748047 A 11.345624 11.345624 0 0 1 78.560547 76.294922 L 76.845703 74.728516 L 77.552734 73.511719 L 79.765625 74.210938 A 11.345624 11.345624 0 0 1 80.757812 73.029297 L 79.681641 70.96875 L 80.761719 70.066406 L 82.599609 71.480469 A 11.345624 11.345624 0 0 1 83.939453 70.707031 L 83.632812 68.40625 L 84.955078 67.923828 L 86.201172 69.886719 A 11.345624 11.345624 0 0 1 87.720703 69.619141 L 88.220703 67.349609 z M 88.927734 72.302734 A 8.589502 8.589502 0 0 0 80.337891 80.894531 A 8.589502 8.589502 0 0 0 88.927734 89.482422 A 8.589502 8.589502 0 0 0 97.515625 80.894531 A 8.589502 8.589502 0 0 0 88.927734 72.304688 L 88.927734 72.302734 z M 88.927734 74.167969 A 6.7262082 6.7262082 0 0 1 95.652344 80.894531 A 6.7262082 6.7262082 0 0 1 88.927734 87.617188 A 6.7262082 6.7262082 0 0 1 82.201172 80.894531 A 6.7262082 6.7262082 0 0 1 88.927734 74.167969 z "
       transform="matrix(0.26458333,0,0,0.26458333,133.70931,116.23312)"
       id="path2116" />
    <path
       inkscape:connector-curvature="0"
       id="path2033"
       d="m 153.85348,133.41642 a 5.4161708,5.4161708 0 0 1 -1.98503,0.38275 5.3736155,5.3736155 0 0 1 -1.56908,-0.23678 c 0.0652,0.0586 0.12892,0.11923 0.19137,0.18112 a 5.4802807,5.4802807 0 0 1 1.46755,2.72418 5.4769647,5.4769647 0 0 1 1.45386,-2.65778 5.2498172,5.2498172 0 0 1 0.44133,-0.39349 z"
       style="fill:#fff;fill-opacity:1;stroke-width:0.55267048" />
    <path
       inkscape:connector-curvature="0"
       id="path1823"
       d="m 151.94412,138.73831 a 5.4769647,5.4769647 0 0 1 -1.45338,2.65729 5.476412,5.476412 0 0 1 -3.82652,1.58519 5.4769647,5.4769647 0 0 1 -2.86038,-0.82213 11.219764,11.208157 0 0 0 8.14321,3.50627 11.219764,11.208157 0 0 0 7.97088,-3.33296 5.4670166,5.4670166 0 0 1 -2.68023,0.71522 5.4758593,5.4758593 0 0 1 -3.82555,-1.58471 5.4802807,5.4802807 0 0 1 -1.46803,-2.72417 z"
       style="fill:#fff;fill-opacity:1;stroke-width:0.55267048" />
    <path
       style="fill:#fff;fill-opacity:1;stroke-width:1.83215559"
       d="M 48.931641 64.160156 A 16.729414 16.729414 0 0 0 32.199219 80.890625 A 16.729414 16.729414 0 0 0 48.931641 97.619141 A 16.729414 16.729414 0 0 0 65.658203 80.890625 A 16.729414 16.729414 0 0 0 48.931641 64.160156 z M 49.785156 69.835938 C 49.52777 75.847389 50.27745 74.305696 50.773438 77.107422 C 50.773438 79.204115 50.450563 80.389201 49.09375 81.988281 A 8.8546413 8.8546413 0 0 0 55.837891 85.117188 A 8.8579589 8.8579589 0 0 0 61.988281 82.617188 A 13.190728 13.190728 0 0 1 48.951172 93.916016 A 13.187411 13.187411 0 0 1 35.871094 82.291016 A 8.8546413 8.8546413 0 0 0 42.339844 85.117188 C 44.942502 85.117188 47.411709 83.973856 49.09375 81.988281 A 8.8546413 8.8546413 0 0 1 46.982422 76.261719 C 46.982422 74.164988 48.429893 71.436681 49.785156 69.835938 z "
       transform="matrix(0.26458333,0,0,0.26458333,133.70931,116.23312)"
       id="path2109" />
  </g>
</svg>
