<?xml version="1.0" encoding="utf-8"?>
<!-- Generator: Adobe Illustrator 26.0.1, SVG Export Plug-In . SVG Version: 6.00 Build 0)  -->
<svg version="1.1"
	 id="svg3307" xmlns:cc="http://creativecommons.org/ns#" xmlns:dc="http://purl.org/dc/elements/1.1/" xmlns:inkscape="http://www.inkscape.org/namespaces/inkscape" xmlns:rdf="http://www.w3.org/1999/02/22-rdf-syntax-ns#" xmlns:sodipodi="http://sodipodi.sourceforge.net/DTD/sodipodi-0.dtd" xmlns:svg="http://www.w3.org/2000/svg"
	 xmlns="http://www.w3.org/2000/svg" xmlns:xlink="http://www.w3.org/1999/xlink" x="0px" y="0px" viewBox="0 0 595.3 841.9"
	 style="enable-background:new 0 0 595.3 841.9;" xml:space="preserve">
<style type="text/css">
	.st0{fill:#FF0000;}
	.st1{fill:#003382;}
	.st2{fill:none;stroke:#003382;stroke-width:7;stroke-linecap:round;stroke-miterlimit:29.8349;}
</style>
<sodipodi:namedview  bordercolor="#666666" borderopacity="1.0" id="base" inkscape:current-layer="layer1-7" inkscape:cx="386.48388" inkscape:cy="371.56504" inkscape:document-rotation="0" inkscape:document-units="mm" inkscape:pageopacity="0.0" inkscape:pageshadow="2" inkscape:window-height="806" inkscape:window-maximized="0" inkscape:window-width="1252" inkscape:window-x="0" inkscape:window-y="23" inkscape:zoom="0.7584773" pagecolor="#ffffff" showgrid="false">
	</sodipodi:namedview>
<g id="layer1" inkscape:groupmode="layer" inkscape:label="Layer 1">
	<g id="layer1-7" transform="matrix(2.631276,0,0,2.631276,-318.00378,-291.59039)" inkscape:label="Layer 1">
		<path id="use17636-5" class="st0" d="M211,176.1c0.1,0.1,0.1,0.3-0.1,0.4c-0.1,0.1-0.3,0.1-0.4-0.1c-0.1-0.1-0.1-0.3,0.1-0.4
			C210.7,176,210.9,176,211,176.1z"/>
		<g id="text1473-5" transform="matrix(-0.92118691,0.42991202,-0.42991202,-0.92118691,382.03542,39.90697)">
			<path id="path1871-4" inkscape:connector-curvature="0" class="st1" d="M243.1-78l0.8,1l-4.4,3.6l-0.8-1L243.1-78z"/>
			<path id="path1873-1" inkscape:connector-curvature="0" class="st1" d="M248-71l-4.8,3l-0.6-0.9l1.4-4.2l-2.9,1.9l-0.7-1.1l4.8-3
				l0.6,0.9l-1.4,4.2l2.9-1.9L248-71z"/>
			<path id="path1875-8" inkscape:connector-curvature="0" class="st1" d="M249.1-68.9l1,2.4c0.2,0.6,0.3,1.1,0.3,1.6
				c0,0.5-0.2,1-0.5,1.4c-0.3,0.4-0.7,0.7-1.2,0.9c-0.5,0.2-1,0.3-1.5,0.2c-0.5-0.1-0.9-0.3-1.3-0.7c-0.4-0.3-0.7-0.8-0.9-1.4
				l-1-2.4L249.1-68.9z M245.8-64.9c0.2,0.5,0.5,0.9,0.9,1.1c0.4,0.2,0.9,0.2,1.4,0c0.5-0.2,0.8-0.5,1-1c0.2-0.4,0.2-0.9-0.1-1.4
				l-0.4-1.1l-3.3,1.3L245.8-64.9z"/>
			<path id="path1877-8" inkscape:connector-curvature="0" class="st1" d="M251.7-61.9l0.3,1.3l-5.5,1.4l-0.3-1.3L251.7-61.9z"/>
			<path id="path1879-3" inkscape:connector-curvature="0" class="st1" d="M248.5-54.4l-0.3-2.6l-1.3-0.3l-0.2-1.3l5.9,1.8l0.2,1.3
				l-5.3,3.2l-0.2-1.4L248.5-54.4z M249.5-54.9l2-1.2l-2.3-0.6L249.5-54.9z"/>
			<path id="path1881-5" inkscape:connector-curvature="0" class="st1" d="M252.9-46.3l-5.7-0.3l0.1-1.1l3.6-2.7l-3.4-0.2l0.1-1.3
				l5.7,0.3l-0.1,1.1l-3.6,2.6l3.4,0.2L252.9-46.3z"/>
			<path id="path1883-2" inkscape:connector-curvature="0" class="st1" d="M246-41.2c0.1-0.4,0.3-0.8,0.5-1.2
				c0.2-0.4,0.5-0.6,0.7-0.8l0.8,0.7c-0.2,0.2-0.5,0.4-0.6,0.7c-0.2,0.3-0.3,0.6-0.4,0.9c-0.1,0.4-0.1,0.6-0.1,0.8
				c0.1,0.2,0.2,0.3,0.4,0.4c0.1,0,0.3,0,0.4-0.1c0.1-0.1,0.2-0.2,0.3-0.3c0.1-0.1,0.2-0.3,0.4-0.6c0.2-0.4,0.4-0.7,0.6-0.9
				c0.2-0.2,0.4-0.4,0.7-0.6c0.3-0.1,0.6-0.1,1,0c0.3,0.1,0.6,0.3,0.8,0.5c0.2,0.2,0.3,0.6,0.4,0.9c0.1,0.4,0,0.8-0.1,1.3
				c-0.1,0.3-0.2,0.7-0.4,1c-0.2,0.3-0.4,0.6-0.6,0.8l-0.8-0.7c0.4-0.4,0.7-0.9,0.9-1.4c0.1-0.4,0.1-0.6,0.1-0.8
				c-0.1-0.2-0.2-0.3-0.4-0.4c-0.2-0.1-0.4,0-0.5,0.2c-0.1,0.2-0.3,0.4-0.5,0.8c-0.2,0.4-0.4,0.7-0.6,0.9s-0.4,0.4-0.7,0.5
				c-0.3,0.1-0.6,0.1-0.9,0c-0.3-0.1-0.6-0.3-0.8-0.5c-0.2-0.2-0.3-0.6-0.4-1C245.8-40.3,245.9-40.7,246-41.2L246-41.2z"/>
			<path id="path1885-2" inkscape:connector-curvature="0" class="st1" d="M243.9-35.6c0.3-0.5,0.6-1,1-1.3c0.4-0.3,0.9-0.5,1.4-0.6
				c0.5,0,1,0.1,1.5,0.3c0.5,0.2,0.9,0.6,1.2,1c0.3,0.4,0.4,0.9,0.5,1.5c0,0.5-0.1,1.1-0.3,1.6c-0.3,0.5-0.6,1-1,1.3
				c-0.4,0.3-0.9,0.5-1.4,0.5c-0.5,0.1-1,0-1.5-0.3c-0.5-0.2-0.9-0.6-1.2-1c-0.3-0.4-0.4-0.9-0.5-1.5
				C243.5-34.5,243.6-35,243.9-35.6L243.9-35.6z M244.9-35.1c-0.1,0.3-0.2,0.6-0.2,0.9c0,0.3,0.1,0.6,0.3,0.8
				c0.2,0.3,0.4,0.5,0.7,0.6c0.3,0.2,0.6,0.2,0.9,0.2c0.3,0,0.6-0.1,0.8-0.3c0.3-0.2,0.5-0.4,0.6-0.7c0.1-0.3,0.2-0.6,0.2-0.9
				c0-0.3-0.1-0.6-0.3-0.9c-0.2-0.3-0.4-0.5-0.8-0.6c-0.3-0.2-0.6-0.2-0.9-0.2c-0.3,0-0.6,0.1-0.9,0.3
				C245.2-35.6,245-35.4,244.9-35.1L244.9-35.1z"/>
			<path id="path1887-6" inkscape:connector-curvature="0" class="st1" d="M240.4-29.7c0.3-0.5,0.7-0.8,1.2-1.1
				c0.5-0.2,1-0.3,1.5-0.3c0.5,0,1,0.2,1.5,0.6c0.5,0.3,0.8,0.7,1,1.2c0.2,0.5,0.3,1,0.2,1.5c-0.1,0.5-0.3,1-0.6,1.5
				c-0.3,0.4-0.6,0.7-1,0.9c-0.4,0.2-0.8,0.4-1.2,0.4l-0.1-1.1c0.6-0.1,1-0.3,1.4-0.8c0.2-0.3,0.3-0.6,0.4-0.9c0-0.3,0-0.6-0.1-0.9
				c-0.1-0.3-0.3-0.5-0.6-0.7c-0.3-0.2-0.6-0.3-0.9-0.4c-0.3,0-0.6,0-0.9,0.1c-0.3,0.1-0.5,0.3-0.7,0.6c-0.3,0.5-0.4,1-0.3,1.5
				l-1.1,0.2c-0.1-0.4-0.1-0.8,0-1.3C239.9-28.9,240.1-29.3,240.4-29.7L240.4-29.7z"/>
			<path id="path1889-6" inkscape:connector-curvature="0" class="st1" d="M242.6-23.3l-0.9,1l-4.2-3.8l0.9-1L242.6-23.3z"/>
			<path id="path1891-7" inkscape:connector-curvature="0" class="st1" d="M234-21.5l-0.7-0.8l3.3-2.9l3.7,4.3l-3.2,2.8l-0.7-0.8
				l2.3-2l-0.8-0.9l-2,1.7l-0.7-0.8l2-1.7l-0.9-1L234-21.5z"/>
			<path id="path1893-8" inkscape:connector-curvature="0" class="st1" d="M234-17.2l1.5-1l0.6,0.9l-4.2,2.7l-0.6-0.9l1.5-1
				l-2.5-3.9l1.1-0.7L234-17.2z"/>
			<path id="path1895-4" inkscape:connector-curvature="0" class="st1" d="M226.7-16.2l-0.8-1.8l1.2-0.5l0.8,1.8l3.5,2.4l-1.3,0.6
				l-2.4-1.7l-0.3,2.9l-1.2,0.5L226.7-16.2z"/>
			<path id="path1897-1" inkscape:connector-curvature="0" class="st1" d="M220.8-11.5l-0.3-1.5l-2.6,0.6l-0.2-1l2.6-0.6l-0.4-2
				l1.3-0.3l1.2,5.5l-4.2,0.9l-0.2-1L220.8-11.5z"/>
			<path id="path1899-7" inkscape:connector-curvature="0" class="st1" d="M213.3-15.2c0.6,0,1.1,0.1,1.6,0.3c0.5,0.2,0.9,0.6,1.2,1
				c0.3,0.4,0.4,0.9,0.5,1.5c0,0.6-0.1,1.1-0.3,1.5c-0.2,0.5-0.6,0.8-1.1,1.1c-0.5,0.3-1,0.4-1.6,0.5c-0.6,0-1.1-0.1-1.6-0.3
				c-0.5-0.2-0.9-0.6-1.2-1c-0.3-0.4-0.4-0.9-0.5-1.5c0-0.6,0.1-1.1,0.3-1.5c0.2-0.5,0.6-0.8,1.1-1.1
				C212.2-15.1,212.7-15.2,213.3-15.2z M213.4-14.1c-0.3,0-0.6,0.1-0.9,0.3c-0.3,0.2-0.5,0.4-0.6,0.7c-0.1,0.3-0.2,0.6-0.2,0.9
				c0,0.4,0.1,0.7,0.3,0.9c0.2,0.3,0.4,0.5,0.7,0.6c0.3,0.1,0.6,0.2,0.9,0.2c0.3,0,0.6-0.1,0.9-0.3c0.3-0.2,0.5-0.4,0.6-0.7
				c0.1-0.3,0.2-0.6,0.2-0.9c0-0.4-0.1-0.7-0.3-0.9c-0.2-0.3-0.4-0.5-0.7-0.6C214-14.1,213.7-14.1,213.4-14.1L213.4-14.1z"/>
			<path id="path1901-1" inkscape:connector-curvature="0" class="st1" d="M205.6-15.6l0.9,1.7l0.1,0l1.1,0.1l0.2-1.6l1.3,0.2
				l-0.7,5.6l-2.4-0.3c-0.5-0.1-0.9-0.2-1.3-0.4c-0.3-0.2-0.6-0.5-0.8-0.8c-0.2-0.3-0.2-0.7-0.2-1.1c0.1-0.4,0.2-0.8,0.4-1
				c0.2-0.3,0.6-0.5,0.9-0.6l-1-2L205.6-15.6z M205.2-12c0,0.3,0,0.6,0.2,0.8c0.2,0.2,0.5,0.3,0.9,0.4l1.1,0.1l0.3-2l-1.1-0.1
				c-0.4-0.1-0.7,0-0.9,0.1C205.4-12.5,205.2-12.3,205.2-12L205.2-12z"/>
			<path id="path1903-8" inkscape:connector-curvature="0" class="st1" d="M198.5-12.7l1.7,0.6l-0.4,1l-4.6-1.7l0.4-1l1.7,0.6
				l1.6-4.3L200-17L198.5-12.7z"/>
			<path id="path1905-7" inkscape:connector-curvature="0" class="st1" d="M192.1-19.6l0.5-0.9l3.9,2.1l-2.7,5l-3.8-2l0.5-0.9
				l2.6,1.4l0.6-1.1l-2.3-1.2l0.5-0.9l2.3,1.2l0.6-1.2L192.1-19.6z"/>
			<path id="path1907-8" inkscape:connector-curvature="0" class="st1" d="M189.6-22.8c0.5,0.4,0.8,0.8,1,1.2c0.2,0.5,0.3,1,0.2,1.5
				c-0.1,0.5-0.3,1-0.6,1.4c-0.3,0.4-0.8,0.8-1.2,1c-0.5,0.2-1,0.2-1.5,0.2c-0.5-0.1-1-0.3-1.5-0.7c-0.4-0.3-0.7-0.6-0.9-1
				c-0.2-0.4-0.3-0.8-0.3-1.2l1.1-0.1c0,0.6,0.3,1,0.7,1.4c0.3,0.2,0.6,0.3,0.9,0.4c0.3,0,0.6,0,0.9-0.1c0.3-0.1,0.5-0.3,0.8-0.6
				c0.2-0.3,0.3-0.6,0.4-0.9c0-0.3,0-0.6-0.1-0.9c-0.1-0.3-0.3-0.5-0.6-0.8c-0.5-0.3-1-0.5-1.5-0.3l-0.2-1.1c0.4-0.1,0.8-0.1,1.3,0
				C188.8-23.3,189.2-23.1,189.6-22.8L189.6-22.8z"/>
			<path id="path1909-7" inkscape:connector-curvature="0" class="st1" d="M179.4-24.7l4.2-3.8l0.9,1l-1.7,1.6l1.7,1.9l1.7-1.6
				l0.9,1l-4.2,3.8l-0.9-1l1.6-1.5l-1.7-1.9l-1.6,1.5L179.4-24.7z"/>
			<path id="path1911-7" inkscape:connector-curvature="0" class="st1" d="M175.1-31l4.8-3l0.6,0.9l-1.4,4.2l2.9-1.8l0.7,1.1l-4.8,3
				l-0.6-0.9l1.4-4.2l-2.9,1.8L175.1-31z"/>
			<path id="path1913-4" inkscape:connector-curvature="0" class="st1" d="M174.2-32.9l-0.6-1.2l5.1-2.4l0.6,1.2L174.2-32.9z"/>
			<path id="path1915-4" inkscape:connector-curvature="0" class="st1" d="M177.5-40.3c0.2,0.5,0.2,1.1,0.1,1.6
				c-0.1,0.5-0.3,1-0.7,1.4c-0.3,0.4-0.8,0.7-1.3,0.8s-1.1,0.2-1.6,0.1c-0.5-0.1-1-0.4-1.3-0.7c-0.4-0.4-0.7-0.8-0.9-1.4
				c-0.2-0.5-0.2-0.9-0.2-1.3c0-0.4,0.2-0.8,0.4-1.2l1,0.6c-0.3,0.5-0.4,1-0.2,1.6c0.1,0.3,0.3,0.6,0.5,0.8c0.2,0.2,0.5,0.4,0.8,0.4
				c0.3,0.1,0.6,0,1-0.1c0.3-0.1,0.6-0.3,0.8-0.5c0.2-0.2,0.4-0.5,0.4-0.8c0.1-0.3,0-0.6-0.1-1c-0.2-0.5-0.5-0.9-1.1-1.1l0.5-1
				c0.4,0.2,0.7,0.4,1,0.7C177.1-41.2,177.3-40.8,177.5-40.3L177.5-40.3z"/>
			<path id="path1917-9" inkscape:connector-curvature="0" class="st1" d="M174.8-46.8l0.4,2.6l1.3,0.3l0.2,1.3l-6-1.7l-0.2-1.3
				l5.2-3.3l0.2,1.4L174.8-46.8z M173.9-46.2l-2,1.2l2.3,0.6L173.9-46.2z"/>
			<path id="path1919-1" inkscape:connector-curvature="0" class="st1" d="M170.1-49.5l0-1.3l4.6,0l0-2.8l1.1,0l0,4.2L170.1-49.5z"
				/>
			<path id="path1921-5" inkscape:connector-curvature="0" class="st1" d="M176.1-61.1l1,0.2l-0.9,4.3l-5.5-1.2l0.9-4.2l1,0.2
				l-0.6,2.9l1.2,0.3l0.6-2.6l1,0.2l-0.6,2.6l1.3,0.3L176.1-61.1z"/>
			<path id="path1923-5" inkscape:connector-curvature="0" class="st1" d="M172.1-64l1-2.4c0.2-0.6,0.5-1,0.9-1.4
				c0.4-0.4,0.8-0.6,1.3-0.7c0.5-0.1,1,0,1.5,0.2c0.5,0.2,0.9,0.5,1.2,0.9c0.3,0.4,0.5,0.9,0.5,1.4c0,0.5-0.1,1.1-0.3,1.6l-1,2.4
				L172.1-64z M177.3-64.6c0.2-0.5,0.2-1,0.1-1.4c-0.2-0.4-0.5-0.8-1-1c-0.5-0.2-1-0.2-1.4,0c-0.4,0.2-0.7,0.5-1,1.1l-0.5,1.1
				l3.3,1.3L177.3-64.6z"/>
			<path id="path1925-5" inkscape:connector-curvature="0" class="st1" d="M181.5-70.1c-0.4,0.7-1,1.1-1.6,1.2c-0.6,0.1-1.3,0-2-0.5
				l-2.7-1.7l0.7-1.1l2.6,1.7c0.9,0.5,1.5,0.5,2-0.2c0.2-0.3,0.3-0.7,0.2-1c-0.1-0.3-0.4-0.6-0.8-0.9l-2.6-1.7l0.7-1.1l2.7,1.7
				c0.7,0.4,1.1,1,1.3,1.6C182.1-71.5,181.9-70.8,181.5-70.1L181.5-70.1z"/>
			<path id="path1927-8" inkscape:connector-curvature="0" class="st1" d="M185.5-75.3c-0.4,0.4-0.8,0.7-1.3,0.9
				c-0.5,0.2-1,0.2-1.5,0.1c-0.5-0.1-1-0.3-1.4-0.7c-0.4-0.4-0.7-0.8-0.8-1.3c-0.2-0.5-0.2-1,0-1.5c0.1-0.5,0.4-1,0.8-1.4
				c0.3-0.4,0.7-0.6,1.1-0.8c0.4-0.2,0.8-0.3,1.2-0.2l0,1.1c-0.6,0-1.1,0.2-1.5,0.6c-0.2,0.3-0.4,0.5-0.5,0.9
				c-0.1,0.3-0.1,0.6,0,0.9c0.1,0.3,0.3,0.6,0.5,0.8c0.3,0.2,0.5,0.4,0.8,0.5c0.3,0.1,0.6,0.1,0.9,0c0.3-0.1,0.6-0.3,0.8-0.5
				c0.4-0.4,0.5-0.9,0.5-1.5l1.1-0.1c0.1,0.4,0,0.8-0.1,1.3C186-76.1,185.8-75.7,185.5-75.3L185.5-75.3z"/>
			<path id="path1929-2" inkscape:connector-curvature="0" class="st1" d="M189.8-80.9l-2.1,1.6L188-78l-1.1,0.8l-1.5-6l1-0.8
				l5.5,2.9l-1.1,0.9L189.8-80.9z M188.8-81.4l-2.1-1.1l0.6,2.3L188.8-81.4z"/>
			<path id="path1931-9" inkscape:connector-curvature="0" class="st1" d="M191-85.8l-1.6,0.9l-0.5-0.9l4.3-2.4l0.5,0.9l-1.6,0.9
				l2.3,4l-1.1,0.7L191-85.8z"/>
			<path id="path1933-8" inkscape:connector-curvature="0" class="st1" d="M194.4-88.7l1.2-0.5l2.3,5.2l-1.2,0.5L194.4-88.7z"/>
			<path id="path1935-2" inkscape:connector-curvature="0" class="st1" d="M201.8-85.3c-0.6,0.2-1.1,0.2-1.6,0.1
				c-0.5-0.1-1-0.3-1.4-0.7c-0.4-0.4-0.6-0.8-0.8-1.3c-0.2-0.5-0.2-1.1,0-1.5c0.1-0.5,0.4-0.9,0.8-1.3c0.4-0.4,0.9-0.6,1.4-0.8
				c0.6-0.2,1.1-0.2,1.6-0.1c0.5,0.1,1,0.4,1.4,0.7c0.4,0.4,0.6,0.8,0.8,1.3c0.2,0.5,0.2,1.1,0,1.6c-0.1,0.5-0.4,0.9-0.8,1.3
				C202.8-85.7,202.4-85.5,201.8-85.3L201.8-85.3z M201.5-86.4c0.3-0.1,0.6-0.2,0.8-0.5c0.2-0.2,0.4-0.5,0.4-0.8
				c0.1-0.3,0.1-0.6,0-1c-0.1-0.3-0.3-0.6-0.5-0.8c-0.2-0.2-0.5-0.4-0.8-0.4c-0.3-0.1-0.6-0.1-0.9,0s-0.6,0.2-0.8,0.5
				c-0.2,0.2-0.4,0.5-0.4,0.8c-0.1,0.3-0.1,0.6,0,1s0.3,0.6,0.5,0.8c0.2,0.2,0.5,0.4,0.8,0.4C200.9-86.3,201.2-86.3,201.5-86.4
				L201.5-86.4z"/>
			<path id="path1937-0" inkscape:connector-curvature="0" class="st1" d="M210.4-92.5l0.5,5.6l-1.1,0.1l-3.1-3.2l0.3,3.4l-1.3,0.1
				l-0.5-5.6l1.1-0.1l3.1,3.2l-0.3-3.4L210.4-92.5z"/>
		</g>
		<path id="path2053-7" inkscape:connector-curvature="0" class="st0" d="M215.4,144.8L215.4,144.8
			C215.4,144.8,215.4,144.8,215.4,144.8C215.4,144.8,215.4,144.8,215.4,144.8L215.4,144.8z"/>
		<path id="circle1825-4" class="st2" d="M257.7,177.9c0,26.9-21.8,48.7-48.7,48.7s-48.7-21.8-48.7-48.7s21.8-48.7,48.7-48.7
			S257.7,151,257.7,177.9z"/>
		<path id="path2055-8" class="st1" d="M209,147.9c-6.9,0-12.5,5.6-12.5,12.5c0,0,0,0,0,0c0,6.9,5.6,12.5,12.5,12.5c0,0,0,0,0,0
			c6.9,0,12.5-5.6,12.5-12.5C221.5,153.5,215.9,147.9,209,147.9C209,147.9,209,147.9,209,147.9z M205,157.4c0.4,0,0.7,0,1.1,0.1
			c0.4,0.1,0.7,0.2,0.9,0.4l-0.4,1c-0.5-0.3-1.1-0.5-1.6-0.5c-0.4,0-0.7,0.1-0.8,0.2c-0.2,0.1-0.3,0.3-0.3,0.5
			c0,0.2,0.1,0.4,0.3,0.5c0.2,0.1,0.5,0.2,1,0.3c0.4,0.1,0.8,0.2,1.1,0.3c0.3,0.1,0.5,0.3,0.7,0.5c0.2,0.2,0.3,0.5,0.3,0.9
			c0,0.3-0.1,0.6-0.3,0.9c-0.2,0.3-0.5,0.5-0.8,0.7c-0.4,0.2-0.8,0.2-1.4,0.2c-0.5,0-0.9-0.1-1.4-0.2c-0.4-0.1-0.8-0.3-1-0.5l0.5-1
			c0.3,0.2,0.6,0.3,0.9,0.4c0.3,0.1,0.7,0.2,1,0.2c0.4,0,0.7-0.1,0.9-0.2c0.2-0.1,0.3-0.3,0.3-0.5c0-0.1-0.1-0.3-0.2-0.3
			c-0.1-0.1-0.2-0.2-0.4-0.2c-0.2-0.1-0.4-0.1-0.7-0.2c-0.4-0.1-0.8-0.2-1.1-0.3c-0.3-0.1-0.5-0.3-0.7-0.5c-0.2-0.2-0.3-0.5-0.3-0.9
			c0-0.3,0.1-0.6,0.3-0.9c0.2-0.3,0.5-0.5,0.8-0.7C204,157.5,204.4,157.4,205,157.4z M200.1,157.5h1.4v5.9h-1.4V157.5z M207.5,157.5
			h5.1v1.1h-1.9v4.8h-1.4v-4.8h-1.9V157.5z M213.3,157.5h4.5v1.1h-3.1v1.3h2.7v1.1h-2.7v1.4h3.2v1.1h-4.6V157.5z"/>
		<path id="path2051-5" inkscape:connector-curvature="0" class="st1" d="M215.1,146.7c1.7,0.8,3.2,1.8,4.6,3.1
			c2.9,2.9,4.5,6.8,4.5,10.8c0,4.1-1.6,8-4.5,10.8c-0.4,0.4-0.8,0.8-1.3,1.1c1.8-0.7,3.7-1.1,5.6-1.1c4.1,0,8,1.6,10.8,4.5
			c2.9,2.9,4.5,6.8,4.5,10.8c0,0.2,0,0.4,0,0.5c1-3.1,1.5-6.3,1.5-9.5C240.8,162.6,230,149.6,215.1,146.7L215.1,146.7z"/>
		<path id="path2049-8" inkscape:connector-curvature="0" class="st1" d="M202,146.9c-14.5,3.3-24.8,16.1-24.8,31
			c0,3.2,0.5,6.5,1.5,9.6c0-0.2,0-0.5,0-0.7c0-4.1,1.6-8,4.5-10.8c2.9-2.9,6.8-4.5,10.8-4.5c1.5,0,3,0.2,4.4,0.7
			c-0.2-0.2-0.4-0.3-0.5-0.5c-2.9-2.9-4.5-6.8-4.5-10.8c0-4.1,1.6-8,4.5-10.8C199.1,148.6,200.5,147.6,202,146.9L202,146.9z"/>
		<path id="path2116-3" class="st1" d="M224,174.3c-6.9,0-12.5,5.6-12.5,12.5c0,0,0,0,0,0c0,6.9,5.6,12.5,12.5,12.5c0,0,0,0,0,0
			c6.9,0,12.5-5.6,12.5-12.5C236.5,179.9,230.9,174.3,224,174.3C224,174.3,224,174.3,224,174.3z M223.5,176.7h1.1l0.4,1.7
			c0.4,0,0.8,0.1,1.1,0.2l0.9-1.5l1,0.4l-0.2,1.7c0.3,0.2,0.7,0.4,1,0.6l1.4-1.1l0.8,0.7l-0.8,1.5c0.3,0.3,0.5,0.6,0.7,0.9l1.7-0.5
			l0.5,0.9l-1.3,1.2c0.2,0.4,0.3,0.7,0.4,1.1l1.7,0.1l0.2,1l-1.6,0.7c0,0.2,0,0.4,0,0.6c0,0.2,0,0.4,0,0.6l1.6,0.7l-0.2,1l-1.7,0.1
			c-0.1,0.4-0.2,0.7-0.4,1.1l1.3,1.2l-0.5,0.9l-1.7-0.5c-0.2,0.3-0.5,0.6-0.7,0.9l0.8,1.5l-0.8,0.7l-1.4-1.1c-0.3,0.2-0.7,0.4-1,0.6
			l0.2,1.7l-1,0.4l-0.9-1.5c-0.4,0.1-0.8,0.2-1.1,0.2l-0.4,1.7h-1.1l-0.4-1.7c-0.4,0-0.8-0.1-1.1-0.2l-0.9,1.5l-1-0.4l0.2-1.7
			c-0.3-0.2-0.7-0.4-1-0.6l-1.4,1.1l-0.8-0.7l0.8-1.5c-0.3-0.3-0.5-0.6-0.7-0.9l-1.7,0.5l-0.5-0.9l1.3-1.2c-0.2-0.4-0.3-0.7-0.4-1.1
			l-1.7-0.1l-0.2-1l1.6-0.7c0-0.2,0-0.4,0-0.6c0-0.2,0-0.4,0-0.6l-1.6-0.7l0.2-1l1.7-0.1c0.1-0.4,0.2-0.7,0.4-1.1l-1.3-1.2l0.5-0.9
			l1.7,0.5c0.2-0.3,0.5-0.6,0.7-0.9l-0.8-1.5l0.8-0.7l1.4,1.1c0.3-0.2,0.7-0.4,1-0.6l-0.2-1.7l1-0.4l0.9,1.5
			c0.4-0.1,0.8-0.2,1.1-0.2L223.5,176.7z M224,180.4c-3.6,0-6.4,2.9-6.4,6.4c0,0,0,0,0,0c0,3.6,2.9,6.4,6.4,6.4
			c3.6,0,6.4-2.9,6.4-6.4C230.4,183.3,227.5,180.4,224,180.4L224,180.4z M224,181.8c2.8,0,5,2.3,5,5c0,2.8-2.3,5-5,5
			c-2.8,0-5-2.3-5-5C218.9,184.1,221.2,181.8,224,181.8C224,181.8,224,181.8,224,181.8z"/>
		<path id="path2033-0" inkscape:connector-curvature="0" class="st1" d="M214.4,174.9c-1.8,0.7-3.7,1.1-5.6,1.1
			c-1.5,0-3-0.2-4.4-0.7c0.2,0.2,0.4,0.3,0.5,0.5c2.1,2.1,3.5,4.8,4.2,7.7c0.6-2.8,2.1-5.5,4.1-7.5
			C213.5,175.6,214,175.2,214.4,174.9z"/>
		<path id="path1823-6" inkscape:connector-curvature="0" class="st1" d="M209,190c-0.6,2.8-2.1,5.5-4.1,7.5
			c-2.9,2.9-6.8,4.5-10.8,4.5c-2.9,0-5.7-0.8-8.1-2.3c6,6.3,14.3,9.9,23.1,9.9c8.5,0,16.6-3.4,22.6-9.4c-2.3,1.3-4.9,2-7.6,2
			c-4.1,0-8-1.6-10.8-4.5C211,195.6,209.6,192.9,209,190L209,190z"/>
		<path id="path2109-2" class="st1" d="M194,174.3c-6.9,0-12.5,5.6-12.5,12.5c0,0,0,0,0,0c0,6.9,5.6,12.5,12.5,12.5c0,0,0,0,0,0
			c6.9,0,12.5-5.6,12.5-12.5C206.5,179.9,200.9,174.3,194,174.3z M194.6,178.5c-0.2,4.5,0.4,3.4,0.7,5.5c0,1.6-0.2,2.5-1.3,3.7
			c1.3,1.5,3.1,2.3,5.1,2.3c1.7,0,3.4-0.7,4.6-1.9c-0.7,4.9-4.9,8.5-9.8,8.5c-5,0-9.2-3.7-9.8-8.7c1.3,1.3,3,2.1,4.9,2.1
			c2,0,3.8-0.9,5.1-2.3c-1-1.2-1.6-2.7-1.6-4.3C192.5,181.8,193.6,179.7,194.6,178.5z"/>
	</g>
</g>
</svg>
